<svg xmlns="http://www.w3.org/2000/svg" version="1.1" viewBox="0 0 500 432.964" xmlns:bx="https://boxy-svg.com">
  <defs>
    <bx:export>
      <bx:file format="svg"></bx:file>
    </bx:export>
  </defs>
  <g transform="matrix(2.283728, 0, 0, -2.377075, -105.552493, 569.104082)" style="">
    <g transform="translate(178.06 235.01)">
      <path d="m0 0-22.669-39.264-22.669 39.264h-75.491l98.16-170.02 98.16 170.02z" fill="#41b883"></path>
    </g>
    <g transform="translate(178.06 235.01)">
      <path d="m0 0-22.669-39.264-22.669 39.264h-36.227l58.896-102.01 58.896 102.01z" fill="#34495e"></path>
    </g>
  </g>
  <path style="fill: rgba(216, 216, 216, 0); stroke-linejoin: round; stroke: rgb(0, 0, 0); stroke-width: 13px;" d="M 249.147 414.633 L 25 10.294 L 197.508 10 L 249.147 103.026 L 300.786 11.181 L 473.294 10.589 L 249.147 414.633 Z"></path>
  <path style="stroke: rgb(0, 0, 0); fill: none; stroke-linejoin: round; stroke-width: 13px; stroke-linecap: round;" d="M 381.805 11 L 249.509 249.066 L 117.638 11"></path>
  <g transform="matrix(6.570779, 0, 0, 6.519718, 176.064062, 23.994685)" style="">
    <path d="M 25.14 45.069 L 30.307 40.392 L 44.324 53.676 C 45.885 55.238 45.885 57.769 44.324 59.331 C 42.762 60.893 40.23 60.893 38.668 59.331 L 25.14 45.069 Z" fill="#cc8355" stroke="black" style="stroke-width: 2.22728px;"></path>
    <circle cx="19" cy="34" r="16" fill="none" stroke="black" style="stroke-width: 2.22728px;"></circle>
    <circle cx="19" cy="34" r="14" fill="none" stroke-width="2" style="stroke: rgb(65, 184, 131);"></circle>
    <circle cx="19" cy="34" r="12" stroke="black" style="stroke-width: 2.22728px; fill: rgb(206, 255, 233); fill-opacity: 0.31;"></circle>
  </g>
</svg>