<?xml version="1.0" encoding="utf-8"?>
<svg xmlns="http://www.w3.org/2000/svg" viewBox="0 0 500 500" xmlns:bx="https://boxy-svg.com" width="500px" height="500px">
  <defs>
    <bx:grid x="0" y="0" width="363.276" height="285.262"/>
    <bx:guide x="225.27737284148208" y="74.7984454595638" angle="180"/>
    <bx:guide x="204.01782721633947" y="106.37304586614884" angle="0"/>
    <bx:grid x="0" y="0" width="363.276" height="285.262"/>
    <bx:guide x="225.27737284148208" y="74.7984454595638" angle="180"/>
    <bx:grid x="0" y="0" width="363.276" height="285.262"/>
    <bx:guide x="225.27737284148208" y="74.7984454595638" angle="180"/>
    <bx:guide x="204.01782721633947" y="106.37304586614884" angle="0"/>
    <bx:grid x="0" y="0" width="363.276" height="285.262"/>
    <bx:guide x="225.27737284148208" y="74.7984454595638" angle="180"/>
    <bx:guide x="204.01782721633947" y="106.37304586614884" angle="0"/>
    <bx:grid x="0" y="0" width="363.276" height="285.262"/>
    <bx:guide x="225.27737284148208" y="74.7984454595638" angle="180"/>
    <bx:grid x="0" y="0" width="363.276" height="285.262"/>
    <bx:grid x="0" y="0" width="363.276" height="285.262"/>
    <bx:guide x="225.27737284148208" y="74.7984454595638" angle="180"/>
    <bx:guide x="204.01782721633947" y="106.37304586614884" angle="0"/>
    <bx:grid x="0" y="0" width="363.276" height="285.262"/>
    <bx:guide x="225.27737284148208" y="74.7984454595638" angle="180"/>
    <bx:grid x="0" y="0" width="363.276" height="285.262"/>
    <bx:guide x="225.27737284148208" y="74.7984454595638" angle="180"/>
    <bx:guide x="204.01782721633947" y="106.37304586614884" angle="0"/>
    <bx:grid x="0" y="0" width="363.276" height="285.262"/>
    <bx:guide x="225.27737284148208" y="74.7984454595638" angle="180"/>
    <bx:grid x="0" y="0" width="363.276" height="285.262"/>
    <bx:guide x="225.27737284148208" y="74.7984454595638" angle="180"/>
    <bx:guide x="204.01782721633947" y="106.37304586614884" angle="0"/>
    <bx:grid x="0" y="0" width="363.276" height="285.262"/>
    <bx:guide x="225.27737284148208" y="74.7984454595638" angle="180"/>
    <bx:guide x="204.01782721633947" y="106.37304586614884" angle="0"/>
    <bx:grid x="0" y="0" width="363.276" height="285.262"/>
    <bx:guide x="225.27737284148208" y="74.7984454595638" angle="180"/>
    <bx:grid x="0" y="0" width="363.276" height="285.262"/>
    <bx:guide x="225.27737284148208" y="74.7984454595638" angle="180"/>
    <bx:guide x="204.01782721633947" y="106.37304586614884" angle="0"/>
    <bx:grid x="0" y="0" width="363.276" height="285.262"/>
    <bx:guide x="225.27737284148208" y="74.7984454595638" angle="180"/>
    <bx:guide x="204.01782721633947" y="106.37304586614884" angle="0"/>
    <bx:grid x="0" y="0" width="363.276" height="285.262"/>
    <bx:guide x="225.27737284148208" y="74.7984454595638" angle="180"/>
    <bx:grid x="0" y="0" width="363.276" height="285.262"/>
    <bx:grid x="0" y="0" width="363.276" height="285.262"/>
    <bx:guide x="225.27737284148208" y="74.7984454595638" angle="180"/>
    <bx:guide x="204.01782721633947" y="106.37304586614884" angle="0"/>
    <bx:grid x="0" y="0" width="363.276" height="285.262"/>
    <bx:guide x="225.27737284148208" y="74.7984454595638" angle="180"/>
    <bx:grid x="0" y="0" width="363.276" height="285.262"/>
    <bx:guide x="225.27737284148208" y="74.7984454595638" angle="180"/>
    <bx:guide x="204.01782721633947" y="106.37304586614884" angle="0"/>
    <bx:grid x="0" y="0" width="363.276" height="285.262"/>
    <bx:guide x="225.27737284148208" y="74.7984454595638" angle="180"/>
    <bx:guide x="204.01782721633947" y="106.37304586614884" angle="0"/>
    <bx:grid x="0" y="0" width="363.276" height="285.262"/>
    <bx:guide x="225.27737284148208" y="74.7984454595638" angle="180"/>
    <bx:grid x="0" y="0" width="363.276" height="285.262"/>
    <bx:grid x="0" y="0" width="363.276" height="285.262"/>
    <bx:guide x="225.27737284148208" y="74.7984454595638" angle="180"/>
    <bx:guide x="204.01782721633947" y="106.37304586614884" angle="0"/>
    <bx:grid x="0" y="0" width="363.276" height="285.262"/>
    <bx:guide x="225.27737284148208" y="74.7984454595638" angle="180"/>
    <bx:grid x="0" y="0" width="363.276" height="285.262"/>
    <bx:guide x="225.27737284148208" y="74.7984454595638" angle="180"/>
    <bx:guide x="204.01782721633947" y="106.37304586614884" angle="0"/>
    <bx:grid x="0" y="0" width="363.276" height="285.262"/>
    <bx:guide x="225.27737284148208" y="74.7984454595638" angle="180"/>
    <bx:grid x="0" y="0" width="363.276" height="285.262"/>
    <bx:guide x="225.27737284148208" y="74.7984454595638" angle="180"/>
    <bx:guide x="204.01782721633947" y="106.37304586614884" angle="0"/>
    <bx:export>
      <bx:file format="svg"/>
    </bx:export>
  </defs>
  <g transform="matrix(0, -18.181818, 18.181818, 0, 234.030658, 229.595646)" style="transform-origin: 12px 12px;">
    <path fill-rule="evenodd" d="M2 7h12.17a3.001 3.001 0 0 0 5.66 0H22a1 1 0 1 0 0-2h-2.17a3.001 3.001 0 0 0-5.66 0H2a1 1 0 0 0 0 2zm15-2a1 1 0 1 0 0 2 1 1 0 0 0 0-2zM4.17 13H2a1 1 0 1 1 0-2h2.17a3.001 3.001 0 0 1 5.66 0H22a1 1 0 1 1 0 2H9.83a3.001 3.001 0 0 1-5.66 0zM6 12a1 1 0 1 1 2 0 1 1 0 0 1-2 0zm8.17 7H2a1 1 0 1 1 0-2h12.17a3.001 3.001 0 0 1 5.66 0H22a1 1 0 1 1 0 2h-2.17a3.001 3.001 0 0 1-5.66 0zM16 18a1 1 0 1 1 2 0 1 1 0 0 1-2 0z" clip-rule="evenodd" opacity="1" data-original="#000000" style="stroke: rgb(0, 0, 0); fill: rgb(65, 184, 131); stroke-width: 0.66px;"/>
  </g>
</svg>