<svg xmlns="http://www.w3.org/2000/svg" version="1.1" xmlns:xlink="http://www.w3.org/1999/xlink" width="512" height="512" x="0" y="0" viewBox="0 0 32 32" style="enable-background:new 0 0 512 512" xml:space="preserve" class=""><g><path d="M29 11.96H14c-.55 0-1-.45-1-1s.45-1 1-1h15c.55 0 1 .45 1 1s-.45 1-1 1zM8 11.96H3c-.55 0-1-.45-1-1s.45-1 1-1h5c.55 0 1 .45 1 1s-.45 1-1 1zM29 22.04h-7c-.55 0-1-.45-1-1s.45-1 1-1h7c.55 0 1 .45 1 1s-.45 1-1 1zM16 22.04H3c-.55 0-1-.45-1-1s.45-1 1-1h13c.55 0 1 .45 1 1s-.45 1-1 1z" fill="#000000" opacity="1" data-original="#000000" class=""></path><path d="M11 15c-2.21 0-4-1.79-4-4 .03-2.23 1.82-4 4-4s3.97 1.77 4 3.95V11c0 2.21-1.79 4-4 4zm0-6a2 2 0 0 0-2 1.97C9 12.1 9.9 13 11 13s2-.9 2-2l1-.04h-1C12.99 9.88 12.09 9 11 9zM19 25c-2.18 0-3.97-1.77-4-3.95 0-2.26 1.79-4.05 4-4.05s4 1.79 4 4v.04c-.03 2.19-1.82 3.96-4 3.96zm0-6c-1.1 0-2 .9-2 2a2 2 0 0 0 4 .03l1-.03h-1c0-1.1-.9-2-2-2z" fill="#000000" opacity="1" data-original="#000000" class=""></path></g></svg>
