<?xml version="1.0" encoding="utf-8"?>
<svg xmlns="http://www.w3.org/2000/svg" viewBox="0 0 500 500">
  <g transform="matrix(11.428572, 0, 0, 11.428572, 43.260232, 39.714997)">
    <path d="M 28.714 -2.6 L 9.99 -2.6 C 8.423 -2.596 7.156 -1.329 7.152 0.238 L 7.152 36.561 C 7.156 38.127 8.423 39.396 9.99 39.4 L 28.714 39.4 C 30.278 39.396 31.547 38.129 31.551 36.564 L 31.551 0.238 C 31.547 -1.329 30.278 -2.596 28.714 -2.6 Z M 16.356 -0.555 L 22.347 -0.555 C 22.611 -0.555 22.777 -0.268 22.644 -0.04 C 22.582 0.067 22.47 0.133 22.347 0.133 L 16.356 0.133 C 16.092 0.133 15.926 -0.154 16.059 -0.383 C 16.119 -0.49 16.234 -0.555 16.356 -0.555 Z M 19.352 37.981 C 18.259 37.981 17.577 36.799 18.123 35.855 C 18.376 35.415 18.845 35.145 19.352 35.145 C 20.442 35.145 21.126 36.327 20.58 37.272 C 20.326 37.711 19.859 37.981 19.352 37.981 Z M 29.577 34.15 L 9.127 34.15 L 9.127 1.9 L 29.577 1.9 L 29.577 34.15 Z" fill="#41b883" opacity="1" data-original="#000000" class="" style="stroke: rgb(0, 0, 0); stroke-linejoin: round; stroke-linecap: round; stroke-width: 0.7px;"/>
  </g>
</svg>