<svg xmlns="http://www.w3.org/2000/svg" version="1.1" xmlns:xlink="http://www.w3.org/1999/xlink" width="512" height="512" x="0" y="0" viewBox="0 0 64 64.2" style="enable-background:new 0 0 512 512" xml:space="preserve" class=""><g><path d="M58.229 18.39a1 1 0 0 0-.48-.854L32.522 2.146a1 1 0 0 0-1.042 0L6.25 17.536a1 1 0 0 0 .001 1.708l9.767 5.95-9.767 5.957a1 1 0 0 0 0 1.707l9.778 5.958-9.778 5.958a.998.998 0 0 0 0 1.707l25.228 15.372a.999.999 0 0 0 1.042 0l25.228-15.372a.998.998 0 0 0 0-1.707l-9.778-5.958 9.778-5.958a.998.998 0 0 0 0-1.707l-9.767-5.956 9.767-5.951c.297-.182.48-.506.48-.855zm-12.18 21.597 9.258 5.64L32 59.83 8.693 45.628l9.257-5.641 13.53 8.243a.999.999 0 0 0 1.04 0zm9.258-7.983L32 46.206 8.693 32.004l9.246-5.639 13.54 8.25a1 1 0 0 0 1.042 0l13.54-8.25zm-9.762-7.667-.007.002L32 32.59l-13.538-8.25-.007-.002-9.762-5.949L32 4.171l23.307 14.217z" fill="#000000" opacity="1" data-original="#000000" class=""></path></g></svg>
